# xmcd CD database file
#
# Track frame offsets:
#	150
#	19302
#	41644
#	60808
#	91569
#	113629
#	134978
#	162043
#	182084
#	201254
#
# Disc length: 3252 seconds
#
# Revision: 0
# Processed by: cddbd v1.4PL0 Copyright (c) Steve Scherf et al.
# Submitted via: CDex 1.50beta10
#
DISCID=7e0cb20a
DTITLE=Tino Gonzales - Nuke The World
DYEAR=2003
DGENRE=Blues
TTITLE0=Heart Full Of Sorrow
TTITLE1=You're Not The One
TTITLE2=Nuke The World
TTITLE3=How Do You Play The Blues
TTITLE4=Raging Blues
TTITLE5=Higher Ground
TTITLE6=When Angels Weep
TTITLE7=Why
TTITLE8=Iz Them Da Blues
TTITLE9=Here ! My Freedom Sings
EXTD=YEAR: 2003
EXTT0=
EXTT1=
EXTT2=
EXTT3=
EXTT4=
EXTT5=
EXTT6=
EXTT7=
EXTT8=
EXTT9=
PLAYORDER=
